<svg width="33" height="33" viewBox="0 0 33 33" fill="none" xmlns="http://www.w3.org/2000/svg">
<circle cx="16.5" cy="16.5" r="16.5" fill="#C3E705"/>
<path d="M8.1875 9.71875C8.1875 9.5447 8.25664 9.37778 8.37971 9.25471C8.50278 9.13164 8.6697 9.0625 8.84375 9.0625H9.332C10.1633 9.0625 10.662 9.62162 10.9464 10.1414C11.1362 10.4879 11.2736 10.8895 11.3813 11.2535L11.4688 11.25H22.4045C23.1307 11.25 23.6558 11.9447 23.4563 12.6439L21.8567 18.2517C21.7133 18.7547 21.4099 19.1973 20.9925 19.5125C20.5751 19.8276 20.0663 19.9981 19.5432 19.9983H14.3387C13.8116 19.9983 13.2989 19.8252 12.8797 19.5055C12.4605 19.1859 12.1578 18.7374 12.0182 18.229L11.3533 15.8035L10.2507 12.0865L10.2499 12.0795C10.1134 11.5834 9.98562 11.1187 9.79487 10.7722C9.612 10.4354 9.465 10.375 9.33288 10.375H8.84375C8.6697 10.375 8.50278 10.3059 8.37971 10.1828C8.25664 10.0597 8.1875 9.8928 8.1875 9.71875ZM12.6264 15.485L13.2835 17.8816C13.4148 18.3559 13.8461 18.6858 14.3387 18.6858H19.5432C19.781 18.6857 20.0123 18.6083 20.202 18.4651C20.3918 18.3219 20.5298 18.1207 20.595 17.8921L22.1149 12.5625H11.7619L12.6141 15.4386L12.6264 15.485ZM15.625 22.625C15.625 23.0891 15.4406 23.5342 15.1124 23.8624C14.7842 24.1906 14.3391 24.375 13.875 24.375C13.4109 24.375 12.9658 24.1906 12.6376 23.8624C12.3094 23.5342 12.125 23.0891 12.125 22.625C12.125 22.1609 12.3094 21.7158 12.6376 21.3876C12.9658 21.0594 13.4109 20.875 13.875 20.875C14.3391 20.875 14.7842 21.0594 15.1124 21.3876C15.4406 21.7158 15.625 22.1609 15.625 22.625ZM14.3125 22.625C14.3125 22.509 14.2664 22.3977 14.1844 22.3156C14.1023 22.2336 13.991 22.1875 13.875 22.1875C13.759 22.1875 13.6477 22.2336 13.5656 22.3156C13.4836 22.3977 13.4375 22.509 13.4375 22.625C13.4375 22.741 13.4836 22.8523 13.5656 22.9344C13.6477 23.0164 13.759 23.0625 13.875 23.0625C13.991 23.0625 14.1023 23.0164 14.1844 22.9344C14.2664 22.8523 14.3125 22.741 14.3125 22.625ZM21.75 22.625C21.75 23.0891 21.5656 23.5342 21.2374 23.8624C20.9092 24.1906 20.4641 24.375 20 24.375C19.5359 24.375 19.0908 24.1906 18.7626 23.8624C18.4344 23.5342 18.25 23.0891 18.25 22.625C18.25 22.1609 18.4344 21.7158 18.7626 21.3876C19.0908 21.0594 19.5359 20.875 20 20.875C20.4641 20.875 20.9092 21.0594 21.2374 21.3876C21.5656 21.7158 21.75 22.1609 21.75 22.625ZM20.4375 22.625C20.4375 22.509 20.3914 22.3977 20.3094 22.3156C20.2273 22.2336 20.116 22.1875 20 22.1875C19.884 22.1875 19.7727 22.2336 19.6906 22.3156C19.6086 22.3977 19.5625 22.509 19.5625 22.625C19.5625 22.741 19.6086 22.8523 19.6906 22.9344C19.7727 23.0164 19.884 23.0625 20 23.0625C20.116 23.0625 20.2273 23.0164 20.3094 22.9344C20.3914 22.8523 20.4375 22.741 20.4375 22.625Z" fill="black"/>
</svg>
